<?xml version="1.0" encoding="utf-8"?>
<!-- Generator: Adobe Illustrator 23.0.0, SVG Export Plug-In . SVG Version: 6.00 Build 0)  -->
<svg
  t="1591957541442"
  class="icon"
  viewBox="0 0 1024 1024"
  version="1.1"
  xmlns="http://www.w3.org/2000/svg"
  p-id="5479"
  width="16"
  height="16"
>
  <path
    d="M1014.784 942.08l-254.464-254.464c59.392-68.096 93.184-161.28 93.184-263.168C853.504 186.88 667.136 0 429.568 0S5.12 186.88 5.12 424.448s186.88 424.448 424.448 424.448c101.888 0 195.072-33.792 263.168-93.184l254.464 254.464c16.896 16.896 42.496 16.896 59.392 0 16.896-17.408 16.896-51.2 8.192-68.096zM90.112 424.448c0-186.88 152.576-339.456 339.456-339.456s339.456 152.576 339.456 339.456-152.576 339.456-339.456 339.456-339.456-153.088-339.456-339.456z m0 0"
    p-id="5480"
  />
</svg>