<svg t="1600186806114" class="icon" viewBox="0 0 1024 1024" version="1.1" xmlns="http://www.w3.org/2000/svg" p-id="2939" width="200" height="200"><path d="M903.018943 765.702891c-8.167498-35.732802-129.659023-148.035892-129.659023-199.082751V443.08674c0-99.030907-58.19342-185.810568-140.889332-227.668993 5.104686-13.272183 7.14656-26.544367 7.146561-40.837488v-54.109671C639.617149 54.109671 585.507478 0 519.14656 0S397.655035 54.109671 397.655035 120.470588v54.109671c0 14.293121 3.062812 28.586241 7.14656 40.837488-83.716849 41.858425-140.889332 128.638086-140.889332 227.668993v123.5334c0 51.046859-121.491525 163.34995-129.659023 199.082751-12.251246 51.046859 26.544367 96.989033 75.549352 96.989033h134.763709c7.14656 89.842473 81.674975 161.308076 173.559322 161.308076s166.412762-71.465603 173.559322-161.308076h134.763709c50.025922 0 88.821535-45.942173 76.570289-96.989033zM519.14656 962.743769c-52.067797 0-95.968096-34.711864-109.240279-82.695913h217.459621c-13.272183 47.984048-57.172483 82.695912-108.219342 82.695913z m-60.235294-842.273181c0-32.66999 26.544367-59.214357 59.214357-59.214357 32.66999 0 59.214357 26.544367 59.214357 59.214357v54.109671c0 3.062812 0 6.125623-1.020937 9.188435-19.397807-2.041874-38.795613-4.083749-59.214357-4.083749-19.397807 0-38.795613 1.020937-59.214357 4.083749 0-3.062812-1.020937-6.125623-1.020937-9.188435v-54.109671z m381.830509 674.839482c-2.041874 2.041874-6.125623 6.125623-13.272184 6.125623H209.802592c-7.14656 0-11.230309-4.083749-13.272183-6.125623-3.062812-3.062812-4.083749-7.14656-3.062812-12.251246 6.125623-10.209372 26.544367-34.711864 39.816551-51.04686 55.130608-68.402792 91.884347-116.386839 91.884347-164.370887V443.08674c0-107.198405 86.779661-193.978066 193.978065-193.978066s193.978066 86.779661 193.978066 193.978066v123.5334c0 49.004985 36.753739 96.989033 91.884347 164.370887 13.272183 16.334995 33.690927 40.837488 39.81655 51.046859-1.020937 5.104686-2.041874 9.188435-4.083748 13.272184z" fill="#555555" p-id="2940"></path></svg>