<?xml version="1.0" standalone="no"?><!DOCTYPE svg PUBLIC "-//W3C//DTD SVG 1.1//EN" "http://www.w3.org/Graphics/SVG/1.1/DTD/svg11.dtd"><svg t="1598585148733" class="icon" viewBox="0 0 1024 1024" version="1.1" xmlns="http://www.w3.org/2000/svg" p-id="2887" xmlns:xlink="http://www.w3.org/1999/xlink" width="200" height="200"><defs><style type="text/css"></style></defs><path d="M521.752381 195.047619c97.52381 0 165.790476 43.885714 204.8 78.019048l136.533333-131.657143c-87.771429-82.895238-204.8-131.657143-341.333333-131.657143-199.92381 0-370.590476 112.152381-453.485714 277.942857l156.038095 131.657143C263.314286 282.819048 380.342857 195.047619 521.752381 195.047619z m0 0" fill="#EA4335" p-id="2888"></path><path d="M204.8 516.87619c0-34.133333 4.87619-73.142857 19.504762-102.4L68.266667 282.819048C34.133333 351.085714 9.752381 433.980952 9.752381 516.87619c0 78.019048 19.504762 151.161905 48.761905 214.552381l156.038095-131.657142c-4.87619-24.380952-9.752381-53.638095-9.752381-82.895239z m0 0" fill="#FBBC05" p-id="2889"></path><path d="M521.752381 838.704762c-146.285714 0-268.190476-97.52381-302.32381-234.057143L58.514286 731.428571c82.895238 175.542857 258.438095 292.571429 463.238095 292.571429 136.533333 0 253.561905-43.885714 336.457143-126.780952L697.295238 780.190476c-39.009524 34.133333-97.52381 58.514286-175.542857 58.514286z m0 0" fill="#34A853" p-id="2890"></path><path d="M1009.371429 526.628571c0-34.133333-4.87619-58.514286-9.752381-82.895238h-482.742858v175.542857h287.695239c-4.87619 43.885714-39.009524 117.028571-107.276191 165.790477l160.914286 117.028571c97.52381-92.647619 151.161905-219.428571 151.161905-375.466667z m0 0" fill="#4285F4" p-id="2891"></path></svg>