<svg t="1600154481940" class="icon" viewBox="0 0 1024 1024" version="1.1" xmlns="http://www.w3.org/2000/svg" p-id="5055" width="200" height="200"><path d="M551.802 232H872c22.091 0 40 17.909 40 40s-17.909 40-40 40H152c-22.091 0-40-17.909-40-40s17.909-40 40-40h320.198a40.477 40.477 0 0 1-0.198-4v-76c0-22.091 17.909-40 40-40s40 17.909 40 40v76c0 1.35-0.067 2.684-0.198 4zM716 376c0-22.091 17.909-40 40-40s40 17.909 40 40v424c0 61.856-50.144 112-112 112H340c-61.856 0-112-50.144-112-112V376c0-22.091 17.909-40 40-40s40 17.909 40 40v424c0 17.673 14.327 32 32 32h344c17.673 0 32-14.327 32-32V376z m-160 0c0-22.091 17.909-40 40-40s40 17.909 40 40v346c0 22.091-17.909 40-40 40s-40-17.909-40-40V376z m-168 0c0-22.091 17.909-40 40-40s40 17.909 40 40v346c0 22.091-17.909 40-40 40s-40-17.909-40-40V376z" p-id="5056" fill="#999"></path></svg>