<?xml version="1.0" encoding="utf-8"?>
<!-- Generator: Adobe Illustrator 23.0.0, SVG Export Plug-In . SVG Version: 6.00 Build 0)  -->
<svg version="1.1" id="图层_1" xmlns="http://www.w3.org/2000/svg" xmlns:xlink="http://www.w3.org/1999/xlink" x="0px" y="0px"
	 viewBox="0 0 200 50" style="enable-background:new 0 0 200 50;" xml:space="preserve">
<style type="text/css">
	.st0{fill:#5179BC;}
	.st1{fill:#D5402F;}
	.st2{fill:#EBB621;}
	.st3{fill:#45A256;}
	.st4{fill:url(#SVGID_1_);}
	.st5{fill:url(#SVGID_2_);}
</style>
<g>
	<g>
		<g>
			<linearGradient id="SVGID_1_" gradientUnits="userSpaceOnUse" x1="100.6472" y1="33.3061" x2="100.9248" y2="19.9807">
				<stop  offset="0" style="stop-color:#683FFF"/>
				<stop  offset="1" style="stop-color:#DA2AFF"/>
			</linearGradient>
			<path class="st4" d="M94.5,25.7c0-2.3,0.4-3.8,1.1-5.6c0.1-0.4,0.4-0.8,0.7-1c0.5-0.4,1-0.3,1.6-0.2c0.9,0.1,1.8,0.5,2.6,1
				c1.5,0.9,2.9,1.8,4.3,2.8c0.7,0.5,1.4,1.1,1.9,1.8c0.5,0.7,0.5,1.3,0.1,2.1c-0.5,1-1.2,1.8-2.2,2.5c-0.3,0.2-0.7,0.4-1,0.1
				c-0.3-0.2-0.4-0.6-0.3-1s0.2-0.7,0.4-1.1c0.6-1.4,0.2-2.6-0.7-3.6c-0.7-0.9-1.7-1.5-2.9-1.5c-1.5,0-2.9,1-3.4,2.5
				C96.2,26.2,97,28,98.5,29c0.5,0.3,1,0.4,1.6,0.4c0.4,0,0.8,0,1.2,0c0.3,0,0.6,0.1,0.8,0.3c0.4,0.3,0.4,0.7,0.1,1.1
				c-0.4,0.5-0.9,0.8-1.5,1.1c-0.7,0.4-1.4,0.7-2.1,0.9c-1.5,0.4-2.4,0-3.2-1.2C95.1,30.6,94.5,28.1,94.5,25.7z"/>
			<linearGradient id="SVGID_2_" gradientUnits="userSpaceOnUse" x1="100.1509" y1="33.2958" x2="100.4285" y2="19.9704">
				<stop  offset="0" style="stop-color:#683FFF"/>
				<stop  offset="1" style="stop-color:#DA2AFF"/>
			</linearGradient>
			<path class="st5" d="M100.3,23.8c1.1,0,1.9,0.9,1.9,2c0,1-0.8,1.8-1.8,1.8c-1.1,0-1.9-0.9-1.9-2C98.4,24.6,99.2,23.8,100.3,23.8z
				"/>
		</g>
	</g>
</g>
</svg>
