<svg t="1600154402898" class="icon" viewBox="0 0 1024 1024" version="1.1" xmlns="http://www.w3.org/2000/svg" p-id="3562" width="200" height="200"><path d="M219.428571 73.142857h481.718858a73.142857 73.142857 0 0 1 51.712 21.430857l176.566857 176.566857a73.142857 73.142857 0 0 1 21.430857 51.712V804.571429a146.285714 146.285714 0 0 1-146.285714 146.285714H219.428571a146.285714 146.285714 0 0 1-146.285714-146.285714V219.428571a146.285714 146.285714 0 0 1 146.285714-146.285714z m0 73.142857a73.142857 73.142857 0 0 0-73.142857 73.142857v585.142858a73.142857 73.142857 0 0 0 73.142857 73.142857h585.142858a73.142857 73.142857 0 0 0 73.142857-73.142857V322.852571L701.147429 146.285714H219.428571z" fill="#333333" p-id="3563"></path><path d="M292.571429 146.285714a73.142857 73.142857 0 0 1 73.142857-73.142857h292.571428a73.142857 73.142857 0 0 1 73.142857 73.142857v73.142857a146.285714 146.285714 0 0 1-146.285714 146.285715H438.857143a146.285714 146.285714 0 0 1-146.285714-146.285715V146.285714z m73.142857 0v73.142857a73.142857 73.142857 0 0 0 73.142857 73.142858h146.285714a73.142857 73.142857 0 0 0 73.142857-73.142858V146.285714H365.714286zM219.428571 877.714286a73.142857 73.142857 0 0 0 73.142858 73.142857h438.857142a73.142857 73.142857 0 0 0 73.142858-73.142857V658.285714a146.285714 146.285714 0 0 0-146.285715-146.285714H365.714286a146.285714 146.285714 0 0 0-146.285715 146.285714v219.428572z m73.142858 0V658.285714a73.142857 73.142857 0 0 1 73.142857-73.142857h292.571428a73.142857 73.142857 0 0 1 73.142857 73.142857v219.428572H292.571429z" fill="#333333" p-id="3564"></path></svg>