<svg id="Layer_1" data-name="Layer 1" xmlns="http://www.w3.org/2000/svg" xmlns:xlink="http://www.w3.org/1999/xlink" viewBox="0 0 175.89 145.13"><defs><linearGradient id="linear-gradient" x1="73.22" y1="35.08" x2="80.78" y2="32.63" gradientUnits="userSpaceOnUse"><stop offset="0.01"/><stop offset="0.13" stop-opacity="0.69"/><stop offset="0.25" stop-opacity="0.32"/><stop offset="1" stop-opacity="0"/></linearGradient><linearGradient id="linear-gradient-2" x1="63.29" y1="31.91" x2="78.22" y2="29.88" xlink:href="#linear-gradient"/><linearGradient id="linear-gradient-3" x1="201.45" y1="74.96" x2="-14.76" y2="105.92" gradientUnits="userSpaceOnUse"><stop offset="0.01"/><stop offset="0.08" stop-opacity="0.69"/><stop offset="0.21" stop-opacity="0.32"/><stop offset="1" stop-opacity="0"/></linearGradient><linearGradient id="linear-gradient-4" x1="107.88" y1="73.54" x2="171.98" y2="118.72" xlink:href="#linear-gradient-3"/><linearGradient id="linear-gradient-5" x1="78.81" y1="54.61" x2="74.11" y2="132.58" xlink:href="#linear-gradient-3"/><linearGradient id="linear-gradient-6" x1="109.54" y1="68.31" x2="178.39" y2="116.83" xlink:href="#linear-gradient-3"/><linearGradient id="linear-gradient-7" x1="114.34" y1="61.53" x2="155.81" y2="125.86" xlink:href="#linear-gradient-3"/><linearGradient id="linear-gradient-8" x1="42.49" y1="84.38" x2="22.93" y2="62.53" xlink:href="#linear-gradient-3"/><linearGradient id="linear-gradient-9" x1="90.24" y1="53.78" x2="42.78" y2="18.49" xlink:href="#linear-gradient"/><linearGradient id="linear-gradient-10" x1="52.06" y1="47.94" x2="109.61" y2="60.65" xlink:href="#linear-gradient"/><linearGradient id="linear-gradient-11" x1="80.29" y1="31.37" x2="92.41" y2="35.1" xlink:href="#linear-gradient"/><linearGradient id="linear-gradient-12" x1="39.46" y1="66.48" x2="34.01" y2="107.48" xlink:href="#linear-gradient-3"/><linearGradient id="linear-gradient-13" x1="32.91" y1="66.48" x2="27.46" y2="107.48" xlink:href="#linear-gradient-3"/><linearGradient id="linear-gradient-14" x1="41.56" y1="3553.98" x2="36.83" y2="3589.57" gradientTransform="matrix(1, 0, 0, -1, -7, 3641.4)" xlink:href="#linear-gradient-3"/></defs><title>15</title><path d="M81,15.5C65.44,26.22,56.16,44.76,40.08,54.81,33.46,59,25.87,61.52,19.71,66.32-3.21,84.19,7.4,125.75,31.5,137.62c11.65,5.75,25.34,4.39,38.33,4.6a149.8,149.8,0,0,1,27.69,3c16,3.28,32.88,9.12,48,3,7.85-3.16,11.66-9.18,17.56-14.56a55.24,55.24,0,0,0,14.32-20c4-9.69,5.43-20.28,5.48-30.76.07-14.13-2.41-28.43-8.59-41.14s-16.25-23.75-29-29.81a67.88,67.88,0,0,0-25.5-6c-12.5-.69-25.44,1.35-36.16,7.81C82.71,14.32,81.82,14.89,81,15.5Z" transform="translate(-7 -5.82)" fill="#3d55df" opacity="0.18" style="isolation:isolate"/><path d="M76.26,37.09l1-1.36a27.59,27.59,0,0,1,3.08-3.81c2.31-2.27,3.81-5.23,5.89-7.72a1,1,0,0,0,.26-.47c.07-.42-.37-.72-.75-.89a3.47,3.47,0,0,0-1.63-.39,1.45,1.45,0,0,0-1.31.91,4.4,4.4,0,0,0-.09,1,4.33,4.33,0,0,1-1.28,2.28L76.2,32.53a5.32,5.32,0,0,0-1.44,2.37A2,2,0,0,0,76.26,37.09Z" transform="translate(-7 -5.82)" fill="#ffbbab"/><path d="M76.26,37.09a2.41,2.41,0,0,0,.63-1.66,7.89,7.89,0,0,1,.45-2.35,4.46,4.46,0,0,0,.51-2.29.22.22,0,0,0,0-.11.17.17,0,0,0-.17,0,1.22,1.22,0,0,0-.63.58c-.6.93-2.24,2.5-2.24,3.66A2,2,0,0,0,76.26,37.09Z" transform="translate(-7 -5.82)" fill="url(#linear-gradient)"/><polygon points="65.75 31.37 68.35 29.01 70.5 31.77 67.74 33.52 65.75 31.37" fill="#3d55df"/><polygon points="65.75 31.37 68.35 29.01 70.5 31.77 67.74 33.52 65.75 31.37" fill="url(#linear-gradient-2)"/><path d="M162.52,83.67c0,25.76-8.51,46.65-19,46.65-.92,0-5.31.3-6.19,0-9.21-3.22-12.81-23.14-12.81-46.65,0-24.09,3.18-44.17,12.72-46.65.66-.18,5.6,0,6.28,0C154,37,162.52,57.9,162.52,83.67Z" transform="translate(-7 -5.82)" fill="#3d55df"/><path d="M162.52,83.67c0,25.76-8.51,46.65-19,46.65-.92,0-5.31.3-6.19,0-9.21-3.22-12.81-23.14-12.81-46.65,0-24.09,3.18-44.17,12.72-46.65.66-.18,5.6,0,6.28,0C154,37,162.52,57.9,162.52,83.67Z" transform="translate(-7 -5.82)" fill="url(#linear-gradient-3)"/><ellipse cx="131.13" cy="77.84" rx="19" ry="46.65" fill="#3d55df"/><ellipse cx="130.21" cy="77.87" rx="15.4" ry="37.81" fill="#fff"/><ellipse cx="130.21" cy="77.87" rx="11.24" ry="27.59" fill="#3d55df"/><ellipse cx="130.21" cy="77.87" rx="7.46" ry="18.32" fill="#fff"/><ellipse cx="130.21" cy="77.87" rx="3.9" ry="9.59" fill="#3d55df"/><polygon points="112.76 89.82 119.3 84.56 119.3 87.19 132.19 77.84 117.31 80.16 119.36 81.81 112.41 85.86 112.76 89.82" opacity="0.36" fill="url(#linear-gradient-4)"/><polygon points="23.17 69.67 33.84 69.67 42.13 75.94 126.75 75.94 128.86 79.08 42.59 79.08 35.68 87.46 25.31 87.46 30.15 80.69 30.15 77.97 23.17 69.67" fill="#3d55df"/><polygon points="30.4 77.57 41.07 77.57 42.58 77.57 127.2 77.57 128.86 79.08 42.59 79.08 35.68 87.46 25.31 87.46 30.15 80.69 30.15 77.97 30.4 77.57" fill="url(#linear-gradient-5)"/><polygon points="122.86 75.94 120.67 72.66 132.19 77.84 120.52 82.48 122.75 77.87 122.86 75.94" fill="#3d55df"/><polygon points="122.86 75.94 120.67 72.66 132.19 77.84 120.52 82.48 122.75 77.87 122.86 75.94" fill="url(#linear-gradient-6)"/><polygon points="132.19 77.84 122.75 77.87 120.52 82.48 132.19 77.84" fill="url(#linear-gradient-7)"/><polygon points="29.05 76.67 42.13 76.67 33.84 69.67 23.17 69.67 29.05 76.67" fill="url(#linear-gradient-8)"/><path d="M72.37,64.57S72.7,70.9,74,74.14a27,27,0,0,1,1.61,6.2c-.18.37.13.81.51,1a2.21,2.21,0,0,0,1.2,0l1.64-.21a.74.74,0,0,0,.52-.23c.17-.27-.11-.62-.42-.71s-.64,0-.94-.16c-.56-.22-.74-.91-.85-1.51l-.48-2.6a67.08,67.08,0,0,1-1.43-11.27,1.47,1.47,0,0,0-.08-.51,1.2,1.2,0,0,0-.77-.55,2.59,2.59,0,0,0-1-.24.93.93,0,0,0-.86.55" transform="translate(-7 -5.82)" fill="#ffbbab"/><path d="M80,80.19l-.42-.06a4.07,4.07,0,0,0-1-.06.31.31,0,0,0-.29.26.94.94,0,0,1-.19.34.85.85,0,0,1-.68.12,2.94,2.94,0,0,1-.73-.13c-.23-.09-.44-.22-.68-.29a.47.47,0,0,0-.4,0,.79.79,0,0,0-.14.18,1.28,1.28,0,0,0-.14.37,1.19,1.19,0,0,0,.06.37.5.5,0,0,0,.69.4l2-.21c.63-.07,1.25-.13,1.87-.24a5,5,0,0,0,1-.28s.09,0,.09-.1,0-.06,0-.09a1.72,1.72,0,0,0-1.19-.62" transform="translate(-7 -5.82)" fill="#3d55df"/><path d="M67.8,64.38s-.73,6.3,0,9.71a27.38,27.38,0,0,1,.56,6.38c-.24.33,0,.82.34,1a2.23,2.23,0,0,0,1.17.25l1.66.06a.7.7,0,0,0,.55-.14c.21-.24,0-.63-.3-.77s-.62-.15-.89-.31c-.52-.31-.59-1-.6-1.63l0-2.64A67.33,67.33,0,0,1,70.7,65a1.1,1.1,0,0,0,0-.51,1.2,1.2,0,0,0-.66-.67,2.72,2.72,0,0,0-1-.41.92.92,0,0,0-.94.4" transform="translate(-7 -5.82)" fill="#ffbbab"/><path d="M77.66,41.44l.93.51c.32.18.93.74,1.32.49s.24-1.25.25-1.6a17.37,17.37,0,0,0-.28-3.74A2.27,2.27,0,0,1,80,35.23a1,1,0,0,1,1.79.27,3.58,3.58,0,0,1,.14,1,1.26,1.26,0,0,1,0,.77,2.23,2.23,0,0,0-.2.33.78.78,0,0,0,0,.4l.73,3.63a4.24,4.24,0,0,1,0,2.42,2.53,2.53,0,0,1-2.89,1.28,8.14,8.14,0,0,1-3.28-1.8c-.1-.08-.22-.21-.15-.32a.27.27,0,0,1,.15-.11,2.45,2.45,0,0,0,1-.65A1.3,1.3,0,0,0,77.66,41.44Z" transform="translate(-7 -5.82)" fill="#ffbbab"/><path d="M75.67,35.41a.67.67,0,0,1-.26.33,1.18,1.18,0,0,1-.56.09,1.06,1.06,0,0,0-.56.14.3.3,0,0,0-.07.28l.1,1.24a.47.47,0,0,1,0,.29A.45.45,0,0,1,74,38c-.45.12-1,.22-1.32-.12a1.3,1.3,0,0,1-.26-.69,13.47,13.47,0,0,1-.25-4.29,3,3,0,0,1,1.22-2.21,2.92,2.92,0,0,1,2.18-.29,1.05,1.05,0,0,1,.74.63c.08.23,0,.43,0,.66a7,7,0,0,0,0,1,4,4,0,0,0,.08.48,1.54,1.54,0,0,1,.07.42,1.64,1.64,0,0,1-.28.72,4.3,4.3,0,0,0-.37.82C75.74,35.2,75.71,35.31,75.67,35.41Z" transform="translate(-7 -5.82)" fill="#ffbbab"/><path d="M76.82,30.39a1.59,1.59,0,0,1-1.11,1.07c-.64.19-1.34.14-2,.34s-.63.61-.6,1.09c0,.23.05.46.08.67v0a3.85,3.85,0,0,1,.06.42,2.57,2.57,0,0,1-.11.88,6.26,6.26,0,0,0-.64,2.42,7,7,0,0,0,.31,1.2,3,3,0,0,1,.08.51,2.53,2.53,0,0,1-.56,1.57,2.91,2.91,0,0,1-.3.31,5.27,5.27,0,0,0-.76.73c-.2.28-.27.65-.46.94a4.94,4.94,0,0,1-1,1.06l-.17.12a4.72,4.72,0,0,1-3.08.91,3,3,0,0,1-1.25-.32,3.37,3.37,0,0,1-.93-.84A5,5,0,0,1,63.3,40.9,3.69,3.69,0,0,1,64,38.19a11.48,11.48,0,0,1,1.18-1.13,3.94,3.94,0,0,0,1.15-1.71c.26-1-.07-2,.07-3a3.25,3.25,0,0,1,2.76-2.65,4.64,4.64,0,0,0,1.91-.28,4.73,4.73,0,0,0,1-1,3.07,3.07,0,0,1,2.37-1.12,2.65,2.65,0,0,1,2.24,1.3A2.41,2.41,0,0,1,76.82,30.39Z" transform="translate(-7 -5.82)" fill="#fc682d"/><path d="M73.21,33.56v0c0,.46,0,1,0,1.3a6.26,6.26,0,0,0-.64,2.42,7,7,0,0,0,.31,1.2,10.45,10.45,0,0,1-.78,2.39,8.94,8.94,0,0,1-.55,1,6.47,6.47,0,0,1-1.65,1.73l-.17.12a4.32,4.32,0,0,1-1.86.68A2.23,2.23,0,0,1,65,42a3.94,3.94,0,0,1,1.83-3A14.71,14.71,0,0,1,69,38.07a3.22,3.22,0,0,0,1.76-1.47,5.16,5.16,0,0,0,.31-1.23c.14-.77.59-2.49,1.45-2.8a.44.44,0,0,1,.62.32A2.62,2.62,0,0,1,73.21,33.56Z" transform="translate(-7 -5.82)" fill="url(#linear-gradient-9)"/><path d="M75,50.67c-.09,3.07,1,6,1.87,8.93.71,2.47,1.45,5.89-1.85,6.76a23.11,23.11,0,0,1-4.09.26c-1,.09-2,.35-3.07.42a8.43,8.43,0,0,1-3.41-.47,2.42,2.42,0,0,1-1-.62c-.77-.87-.21-2.22.29-3.27,1.81-3.84,1.49-8,4.35-11.31a3.6,3.6,0,0,0,.88-1.32A3.77,3.77,0,0,0,69,48.59a27.39,27.39,0,0,1-.11-4.79A11.36,11.36,0,0,1,70,39.64,5.55,5.55,0,0,1,71,38a2.81,2.81,0,0,1,1.72-.84,1.89,1.89,0,0,1,1.69.78c1,1.53,2.63,1.87,3.83,3.24a.49.49,0,0,1,.14.24.51.51,0,0,1-.1.29c-.43.67-.85,1.34-1.27,2a3.68,3.68,0,0,1-.45.61c-.15.15-.33.28-.48.43a3.18,3.18,0,0,0-.69,1.69A28,28,0,0,0,75,50.67Z" transform="translate(-7 -5.82)" fill="#3d55df"/><path d="M72.7,81.05l-.41-.13a3.53,3.53,0,0,0-1-.23.38.38,0,0,0-.18,0,.38.38,0,0,0-.15.18.78.78,0,0,1-.24.3.83.83,0,0,1-.69,0,2.92,2.92,0,0,1-.7-.25c-.21-.12-.4-.29-.62-.4a.47.47,0,0,0-.4,0,.65.65,0,0,0-.17.16,1.12,1.12,0,0,0-.2.33,1.21,1.21,0,0,0,0,.38.66.66,0,0,0,.09.31.64.64,0,0,0,.52.19l2,.13c.63,0,1.26.08,1.89.07a3.89,3.89,0,0,0,1-.11.15.15,0,0,0,.12-.08s0-.06,0-.09A1.78,1.78,0,0,0,72.47,81" transform="translate(-7 -5.82)" fill="#3d55df"/><path d="M77.47,63.54a2.14,2.14,0,0,1-1.78-.18,3.89,3.89,0,0,1-1.47-2.82c-.37-2.38-.15-4.95-1.4-7a3.4,3.4,0,0,1-.83-2c.08-.76.79-1.27,1.2-1.92a5.38,5.38,0,0,0,.61-2.41l.42-4.71c0,.4,1.74,1.24,2.37,1.85-.15.15-.33.28-.48.43a3.18,3.18,0,0,0-.69,1.69A28,28,0,0,0,75,50.67c-.09,3.07,1,6,1.87,8.93A10.51,10.51,0,0,1,77.47,63.54Z" transform="translate(-7 -5.82)" fill="url(#linear-gradient-10)"/><path d="M85.7,32.79a7.39,7.39,0,0,1-.61,3.62.74.74,0,0,1-.22.08.27.27,0,0,1-.18,0c-.45-.17-2.86-2.35-6.1-1.77a1.17,1.17,0,1,1,0-2.28s4.32-.69,5.55-3c.18-.34.42-.43.68-.35a1.07,1.07,0,0,1,.41.28h0A9.38,9.38,0,0,1,85.7,32.79Z" transform="translate(-7 -5.82)" fill="#3d55df"/><path d="M85.7,32.79a7.39,7.39,0,0,1-.61,3.62.26.26,0,0,1-.18.09h0c-.41-.1-.74-1.72-.74-3.7s.3-3.46.69-3.68a.16.16,0,0,1,.09,0c.11,0,.22.11.32.31h0A9.38,9.38,0,0,1,85.7,32.79Z" transform="translate(-7 -5.82)" fill="url(#linear-gradient-11)"/><path d="M93.78,40.33,91,50.37A3.5,3.5,0,0,0,91,52.71a3.78,3.78,0,0,0,2.21,1.58,21.74,21.74,0,0,1,10.59,9.44c-.71-1.28,3.31-5.73,3.78-6.8,1.24-2.77,0-3.74-1.84-6.07C102.34,46.73,98.56,42.81,93.78,40.33Z" transform="translate(-7 -5.82)" fill="#fff"/><path d="M62.37,112.81l16.18,2.52a4.11,4.11,0,0,0,4.17-1.22c4.41-3.56,8.94-7.26,11.62-12.25L83,102.94c-3.29.32-6.27,3.86-9.15,5.44a47.44,47.44,0,0,1-5.79,2.68C66.67,111.59,63.88,113.05,62.37,112.81Z" transform="translate(-7 -5.82)" fill="#fff"/><path d="M45.51,61.09a.54.54,0,0,1,.22-.25.61.61,0,0,1,.33,0q2.76.36,5.51.81a4.38,4.38,0,0,0-.68,3.23,5.49,5.49,0,0,0,1.6,2.92,4.18,4.18,0,0,1-1.26-.23L48,66.63c-.68-.2-1.83-.32-2.23-1a7,7,0,0,1-.45-1.94A3.75,3.75,0,0,1,45.51,61.09Z" transform="translate(-7 -5.82)" fill="#fff"/><polygon points="31.86 87.46 37.23 79.27 42.59 79.08 35.6 87.46 31.86 87.46" fill="url(#linear-gradient-12)"/><polygon points="25.31 87.46 31.19 79.25 36.04 79.08 29.04 87.46 25.31 87.46" fill="url(#linear-gradient-13)"/><polygon points="26.93 69.67 34.39 76.67 38.31 76.67 30.66 69.67 26.93 69.67" fill="url(#linear-gradient-14)"/></svg>